<?xml version="1.0" encoding="utf-8"?>
<!-- Generator: Adobe Illustrator 23.1.1, SVG Export Plug-In . SVG Version: 6.00 Build 0)  -->
<svg version="1.1" id="Capa_1" xmlns="http://www.w3.org/2000/svg" xmlns:xlink="http://www.w3.org/1999/xlink" x="0px" y="0px"
	 viewBox="0 0 517.7 131.2" style="enable-background:new 0 0 517.7 131.2;" xml:space="preserve">
<style type="text/css">
	.st0{fill:#3F90FF;}
	.st1{fill:#999999;}
</style>
<title>Recurso 5</title>
<g>
	<g id="Capa_2-2">
		<path class="st0" d="M137.7,68.8c-0.5-0.9-1.5-1.5-2.5-1.5c-1.2,0-2.3,0.6-3.3,1.8c-2.9,3.7-5.4,6.3-7.6,7.9
			c-2.2,1.6-4.9,2.3-8.3,2.3c-4.7,0-8-1.9-10-5.7c9.7-2.4,16.6-5.6,20.7-9.6c4-3.8,6.2-9.1,6.1-14.6c0-4.8-1.4-8.7-4.3-11.5
			c-2.9-2.8-6.7-4.2-11.4-4.2c-5.1-0.1-10.1,1.4-14.3,4.3c-4.3,2.9-7.7,6.9-9.9,11.6c-2.4,4.9-3.6,10.3-3.6,15.8
			c0,1.8,0.1,3.5,0.4,5.3c-1.7,1.8-3.1,3.3-4.3,4.4c-2.3,2-4.2,3-5.8,3c-2.4,0-3.6-1.6-3.6-4.9c0-2.3,0.8-7,2.3-14.1
			C80.1,50.8,81,45,81,41.8c0-5.3-2.7-8-8-8c-4.3,0-9,2.3-14,6.9s-9.5,11.9-13.6,22c0.2-1.5,0.7-3.7,1.4-6.6
			c1.6-6.9,2.3-11.6,2.3-14.3c0-2.7-0.6-4.7-1.8-6s-3.2-2-6.1-2c-2.9,0-5.9,1.1-9.2,3.3s-6.4,5.5-9.5,9.9c-3.4,5-6,10.5-7.9,16.2
			c0.2-3,0.7-6,1.2-9c0.5-2.4,1.1-5.3,2-8.5c1.2-4.6,1.8-7.5,1.8-8.8c0-1.1-0.3-1.9-1-2.3c-0.7-0.4-1.8-0.6-3.4-0.6
			c-3,0-5.4,0.6-7.1,1.7c-1.8,1.3-3.1,3.1-3.6,5.2C1.5,50.5-0.1,60.7,0,71c0,7.2,0.6,12.5,1.9,15.7c1.3,3.3,3.5,4.9,6.6,4.9
			c2.5,0,4.4-0.7,5.6-2c1.2-1.4,2.2-4,3.1-7.8c1.1-4.6,2.5-9.1,4.2-13.5c1.4-3.9,3.3-7.7,5.5-11.3c1.9-2.9,3.4-4.4,4.7-4.4
			c0.9,0,1.4,0.7,1.4,2c0,1.6-0.3,5.1-1,10.3c-0.7,4.5-1.1,9-1.2,13.5c-0.1,3.3,0.6,6.5,2,9.4c1.4,2.6,3.4,3.9,6.1,3.9
			c2.6,0,4.5-0.7,5.7-2c1.2-1.3,2.2-3.9,3.1-7.9c1.2-4.9,2.8-9.6,4.8-14.2c1.6-3.8,3.6-7.5,5.9-10.9c2-2.7,3.5-4.1,4.5-4.1
			c0.9,0,1.4,0.7,1.4,2c0,2-0.5,5.5-1.6,10.7c-1.2,5.9-1.7,10-1.7,12.3c0,4.6,1.1,8.1,3.2,10.5c2.1,2.4,5.3,3.6,9.5,3.6
			c4.9,0.1,9.8-1.4,13.8-4.2c2.3-1.6,4.5-3.4,6.5-5.3c0.6,0.9,1.2,1.7,1.9,2.5c4.3,4.7,10.4,7.1,18.3,7.1c5.2,0,9.6-1,13.3-2.9
			c3.7-1.9,6.8-4.8,9-8.2c1.4-2.3,2.2-4.9,2.1-7.6C138.7,71.5,138.4,70.1,137.7,68.8z M104.2,63.9c0-5,1-9.3,3.1-12.8
			c2.1-3.5,4.7-5.3,7.7-5.3c1.3-0.1,2.6,0.5,3.5,1.4c0.9,1,1.4,2.4,1.3,3.7c0,3-1.4,5.7-4.2,8c-2.8,2.3-6.6,4-11.4,5.2L104.2,63.9z"
			/>
		<path class="st1" d="M168.7,76.8c0.5,0.2,1.1,0.3,1.7,0.3c0.6,0,1.1,0.1,1.7,0.1c1.4,0,2.7-0.2,4.1-0.6c1.3-0.4,2.5-0.9,3.7-1.6
			c2.3-1.5,4.1-3.6,5.3-6l10.6,10.5c-1.3,1.9-2.9,3.6-4.6,5.1c-3.5,3-7.6,5.1-12,6.2c-2.3,0.5-4.6,0.8-6.9,0.8
			c-3.9,0-7.7-0.7-11.2-2.2c-3.4-1.4-6.6-3.5-9.2-6.1c-2.7-2.7-4.8-5.9-6.2-9.3c-1.5-3.8-2.3-7.8-2.3-11.9
			c-0.1-4.2,0.7-8.3,2.3-12.1c2.8-7,8.4-12.6,15.4-15.4c3.6-1.4,7.4-2.2,11.3-2.1c2.3,0,4.7,0.3,6.9,0.8c2.2,0.6,4.4,1.4,6.4,2.4
			c2,1.1,3.9,2.3,5.7,3.8c1.8,1.5,3.3,3.2,4.7,5.1L168.7,76.8z M176,47.3c-0.6-0.2-1.3-0.4-2-0.5c-0.7-0.1-1.4-0.1-2-0.1
			c-1.9,0-3.8,0.4-5.6,1.1c-1.7,0.7-3.3,1.7-4.5,3.1c-1.3,1.4-2.3,3-3,4.8c-0.8,2-1.1,4.2-1.1,6.3c0,0.5,0,1.1,0.1,1.8
			c0.1,0.7,0.1,1.3,0.3,2c0.1,0.7,0.3,1.3,0.4,2c0.2,0.6,0.4,1.1,0.7,1.7L176,47.3z"/>
		<path class="st1" d="M318.1,34.4h-14.4v31c0,1.5-0.3,3-0.8,4.4c-0.5,1.4-1.3,2.7-2.3,3.8c-1,1.1-2.2,2-3.5,2.7
			c-1.3,0.7-2.7,1-4.2,1c-1.5,0-2.9-0.3-4.3-0.8c-1.3-0.5-2.5-1.3-3.5-2.3c-1-1.1-1.8-2.3-2.4-3.7c-0.6-1.6-0.9-3.3-0.9-5.1v-31
			h-14.4v31c-0.1,3.7,0.6,7.4,2,10.9c1.2,3.1,3.1,5.9,5.4,8.2c2.3,2.3,5.1,4,8.1,5.2c3.1,1.2,6.5,1.9,9.8,1.8c1.6,0,3.2-0.2,4.7-0.6
			c1.5-0.4,3-0.9,4.5-1.6c1.4-0.7,2.8-1.5,4.1-2.4c1.2-0.8,2.3-1.7,3.3-2.6c1.7,2.1,4.8,2.4,6.9,0.6c1.1-0.9,1.8-2.3,1.8-3.7
			L318.1,34.4z"/>
		<path class="st1" d="M257.3,18.4c0-4.1-3.3-7.4-7.4-7.4c-4.1,0-7.4,3.3-7.4,7.4l0.2,19.9c-0.8-1.1-1.7-2.1-2.9-2.8
			c-1.1-0.8-2.3-1.4-3.6-1.8c-1.3-0.5-2.6-0.8-4-1c-1.3-0.2-2.6-0.3-3.9-0.3c-3.9,0-7.7,0.7-11.2,2.2c-3.4,1.5-6.6,3.6-9.2,6.2
			c-2.7,2.7-4.8,5.9-6.2,9.4c-1.5,3.7-2.3,7.7-2.3,11.8c0,4,0.7,8.1,2.3,11.8c1.4,3.5,3.6,6.7,6.2,9.4c5.4,5.4,12.8,8.4,20.4,8.4
			c1.8,0,3.6-0.2,5.4-0.7c1.8-0.5,3.5-1.1,5.2-1.8c1.7-0.8,3.3-1.7,4.8-2.8c1.2-0.8,2.4-1.8,3.5-2.7c1.2,2.6,4.2,3.9,6.9,2.7
			c1.9-0.8,3.1-2.7,3.1-4.8c0-0.1,0-0.2,0-0.3l0,0L257.3,18.4z M241.6,67.6c-0.7,1.8-1.8,3.4-3.1,4.9c-1.3,1.4-2.9,2.6-4.6,3.4
			c-1.7,0.9-3.6,1.3-5.6,1.3c-1.9,0-3.8-0.4-5.6-1.2c-1.7-0.8-3.3-1.9-4.5-3.3c-2.7-2.9-4.2-6.8-4.1-10.7c0-2.2,0.3-4.3,1.1-6.4
			c0.7-1.8,1.7-3.4,3.1-4.8c1.3-1.3,2.8-2.3,4.5-3c1.8-0.7,3.7-1.1,5.6-1c1.9,0,3.8,0.4,5.6,1.3c1.7,0.8,3.3,2,4.6,3.4
			c1.3,1.4,2.3,3.1,3.1,4.9C243.1,59.9,243.1,64,241.6,67.6L241.6,67.6z"/>
	</g>
</g>
<circle class="st0" cx="331.6" cy="94.2" r="8.7"/>
<path class="st0" d="M392.8,91.3c-7,0-11.6-2.5-13.9-7.5c-3.9,5.1-9,7.6-15.2,7.6s-11.4-2.2-15.6-6.5c-4.2-4.3-6.3-10-6.3-17
	c0-10.3,2.9-18.4,8.8-24.5c5.8-6.1,13.2-9.2,22.2-9.2c0.2,0,0.5,0,0.7,0c3.8,0,7.3,0.7,10.5,2c2-1.3,4.5-1.7,7.4-1
	c6,1.4,5.6,6.4,5.4,8.2c-0.7,5.8-0.5,3.5-1.2,9.1c-0.8,5.6-1.3,9.6-1.6,11.9c-0.7,5.3-1,9.2-1,11.5c0,3.1,1.2,4.7,3.6,4.7
	c1.9,0,3.9-1.3,6-3.9c2.1-2.6,4-6.7,5.6-12.4c2.2,2,3.7,4.3,4.6,6.8c-2.2,7.4-5.2,12.7-8.9,15.7C400.2,89.8,396.5,91.3,392.8,91.3z
	 M374.5,43.4c-4.9,0-8.7,1.9-11.6,5.7c-2.8,3.8-4.5,9.4-5.1,17c-0.1,0.7-0.1,1.4-0.1,2c0,3.8,0.9,6.9,2.7,9.2
	c1.8,2.3,4.1,3.4,6.9,3.4c4.8,0,8.4-3.5,10.8-10.4l2.7-25.4C378.7,43.9,376.6,43.4,374.5,43.4z"/>
<path class="st0" d="M453.4,41.1c-3.9-4.6-8.7-6.9-14.1-6.9c-5.5,0-10,1.3-13.5,3.9c-2-2-3.8-2.9-8.8-2.7c-6.1,0.3-7.2,5.9-7.2,7
	c-1.7,15.3-3.4,31.2-8.2,73.4c-0.1,0.4-0.1,0.8-0.1,1.2c0,3.5,3.2,6.1,7.2,6.1c3.7,0,6.7-2.5,7.1-5.6l0,0l3.6-26.9
	c2.5,0.5,4.8,0.8,6.9,0.8c9.4,0,17-2.7,22.9-8c5.8-5.4,9.2-13.2,10-23.4c0.1-0.9,0.1-1.8,0.1-2.7C459.3,51.1,457.3,45.7,453.4,41.1z
	 M438.7,75.5c-2.5,3.6-5.7,5.4-9.6,5.4c-2.2,0-4.1-0.6-5.6-1.8c-1.5-1.2-2.2-2.9-2.2-5.3c0.2-1.9,1.1-8.6,2.6-20.2
	c2.3-5.8,5.6-8.7,9.9-8.7c3.2,0,5.5,1.3,7.1,4c1.5,2.7,2.3,5.7,2.3,9.2C443.3,65.2,441.7,71,438.7,75.5z"/>
<path class="st0" d="M511.2,41.1c-3.9-4.6-8.7-6.9-14.1-6.9c-5.5,0-10,1.3-13.5,3.9c-2-2-3.8-2.9-8.8-2.7c-6.1,0.3-7.2,5.9-7.2,7
	c-1.7,15.3-3.4,31.2-8.2,73.4c-0.1,0.4-0.1,0.8-0.1,1.2c0,3.5,3.2,6.1,7.2,6.1c3.7,0,6.7-2.5,7.1-5.6l0,0l3.6-26.9
	c2.5,0.5,4.8,0.8,6.9,0.8c9.4,0,17-2.7,22.9-8c5.8-5.4,9.2-13.2,10-23.4c0.1-0.9,0.1-1.8,0.1-2.7C517.1,51.1,515.2,45.7,511.2,41.1z
	 M496.5,75.5c-2.5,3.6-5.7,5.4-9.6,5.4c-2.2,0-4.1-0.6-5.6-1.8c-1.5-1.2-2.2-2.9-2.2-5.3c0.2-1.9,1.1-8.6,2.6-20.2
	c2.3-5.8,5.6-8.7,9.9-8.7c3.2,0,5.5,1.3,7.1,4c1.5,2.7,2.3,5.7,2.3,9.2C501.1,65.2,499.6,71,496.5,75.5z"/>
</svg>
